<svg width="72" height="72" viewBox="0 0 72 72" fill="none" xmlns="http://www.w3.org/2000/svg">
<rect width="72" height="72" rx="20" fill="#204DD4"/>
<path d="M29.1175 59.2257L12.7742 13.9354H18.9452L35.2313 59.2257H29.1175Z" fill="white"/>
<path d="M47.5711 54.0614C44.7903 54.0614 42.581 53.392 40.943 52.0531C39.305 50.6759 38.486 48.2468 38.486 44.7656V30.7646H31.3437V25.6002H35.5719C37.5146 25.6002 38.6574 24.6439 39.0003 22.7312L39.8573 18.1407H44.5427V25.6002H55.7419V30.7646H44.5427V44.6509C44.5427 46.1428 44.8665 47.1948 45.5141 47.8068C46.1997 48.3807 47.3616 48.6676 48.9995 48.6676H55.6276V54.0614H47.5711Z" fill="white"/>
</svg>
